<?xml version="1.0" encoding="UTF-8" standalone="no"?>
<!DOCTYPE svg PUBLIC "-//W3C//DTD SVG 1.1//EN"
 "http://www.w3.org/Graphics/SVG/1.1/DTD/svg11.dtd">
<!-- Generated by graphviz version 2.44.1 (20200629.0846)
 -->
<!-- Title: Tree Pages: 1 -->
<svg width="746pt" height="671pt"
 viewBox="0.00 0.00 746.00 671.00" xmlns="http://www.w3.org/2000/svg" xmlns:xlink="http://www.w3.org/1999/xlink">
<g id="graph0" class="graph" transform="scale(1 1) rotate(0) translate(4 667)">
<title>Tree</title>
<polygon fill="white" stroke="transparent" points="-4,4 -4,-667 742,-667 742,4 -4,4"/>
<!-- 0 -->
<g id="node1" class="node">
<title>0</title>
<polygon fill="#fffdfd" stroke="black" points="272,-663 114,-663 114,-580 272,-580 272,-663"/>
<text text-anchor="middle" x="193" y="-647.8" font-family="Times New Roman,serif" font-size="14.00">petal length (cm) &lt;= 2.45</text>
<text text-anchor="middle" x="193" y="-632.8" font-family="Times New Roman,serif" font-size="14.00">gini = 0.667</text>
<text text-anchor="middle" x="193" y="-617.8" font-family="Times New Roman,serif" font-size="14.00">samples = 120</text>
<text text-anchor="middle" x="193" y="-602.8" font-family="Times New Roman,serif" font-size="14.00">value = [41, 40, 39]</text>
<text text-anchor="middle" x="193" y="-587.8" font-family="Times New Roman,serif" font-size="14.00">class = setosa</text>
</g>
<!-- 1 -->
<g id="node2" class="node">
<title>1</title>
<polygon fill="#e58139" stroke="black" points="173,-536.5 61,-536.5 61,-468.5 173,-468.5 173,-536.5"/>
<text text-anchor="middle" x="117" y="-521.3" font-family="Times New Roman,serif" font-size="14.00">gini = 0.0</text>
<text text-anchor="middle" x="117" y="-506.3" font-family="Times New Roman,serif" font-size="14.00">samples = 41</text>
<text text-anchor="middle" x="117" y="-491.3" font-family="Times New Roman,serif" font-size="14.00">value = [41, 0, 0]</text>
<text text-anchor="middle" x="117" y="-476.3" font-family="Times New Roman,serif" font-size="14.00">class = setosa</text>
</g>
<!-- 0&#45;&gt;1 -->
<g id="edge1" class="edge">
<title>0&#45;&gt;1</title>
<path fill="none" stroke="black" d="M166.63,-579.91C159.32,-568.65 151.37,-556.42 144.03,-545.11"/>
<polygon fill="black" stroke="black" points="146.93,-543.15 138.54,-536.67 141.06,-546.96 146.93,-543.15"/>
<text text-anchor="middle" x="133.35" y="-557.42" font-family="Times New Roman,serif" font-size="14.00">True</text>
</g>
<!-- 2 -->
<g id="node3" class="node">
<title>2</title>
<polygon fill="#fafefc" stroke="black" points="346.5,-544 191.5,-544 191.5,-461 346.5,-461 346.5,-544"/>
<text text-anchor="middle" x="269" y="-528.8" font-family="Times New Roman,serif" font-size="14.00">petal width (cm) &lt;= 1.55</text>
<text text-anchor="middle" x="269" y="-513.8" font-family="Times New Roman,serif" font-size="14.00">gini = 0.5</text>
<text text-anchor="middle" x="269" y="-498.8" font-family="Times New Roman,serif" font-size="14.00">samples = 79</text>
<text text-anchor="middle" x="269" y="-483.8" font-family="Times New Roman,serif" font-size="14.00">value = [0, 40, 39]</text>
<text text-anchor="middle" x="269" y="-468.8" font-family="Times New Roman,serif" font-size="14.00">class = versicolor</text>
</g>
<!-- 0&#45;&gt;2 -->
<g id="edge2" class="edge">
<title>0&#45;&gt;2</title>
<path fill="none" stroke="black" d="M219.37,-579.91C225.09,-571.1 231.19,-561.7 237.1,-552.61"/>
<polygon fill="black" stroke="black" points="240.17,-554.31 242.68,-544.02 234.3,-550.5 240.17,-554.31"/>
<text text-anchor="middle" x="247.87" y="-564.78" font-family="Times New Roman,serif" font-size="14.00">False</text>
</g>
<!-- 3 -->
<g id="node4" class="node">
<title>3</title>
<polygon fill="#3ee684" stroke="black" points="261,-425 103,-425 103,-342 261,-342 261,-425"/>
<text text-anchor="middle" x="182" y="-409.8" font-family="Times New Roman,serif" font-size="14.00">petal length (cm) &lt;= 5.25</text>
<text text-anchor="middle" x="182" y="-394.8" font-family="Times New Roman,serif" font-size="14.00">gini = 0.051</text>
<text text-anchor="middle" x="182" y="-379.8" font-family="Times New Roman,serif" font-size="14.00">samples = 38</text>
<text text-anchor="middle" x="182" y="-364.8" font-family="Times New Roman,serif" font-size="14.00">value = [0, 37, 1]</text>
<text text-anchor="middle" x="182" y="-349.8" font-family="Times New Roman,serif" font-size="14.00">class = versicolor</text>
</g>
<!-- 2&#45;&gt;3 -->
<g id="edge3" class="edge">
<title>2&#45;&gt;3</title>
<path fill="none" stroke="black" d="M238.82,-460.91C232.14,-451.92 224.99,-442.32 218.1,-433.05"/>
<polygon fill="black" stroke="black" points="220.91,-430.96 212.13,-425.02 215.29,-435.13 220.91,-430.96"/>
</g>
<!-- 6 -->
<g id="node7" class="node">
<title>6</title>
<polygon fill="#8b49e7" stroke="black" points="434.5,-425 279.5,-425 279.5,-342 434.5,-342 434.5,-425"/>
<text text-anchor="middle" x="357" y="-409.8" font-family="Times New Roman,serif" font-size="14.00">petal width (cm) &lt;= 1.75</text>
<text text-anchor="middle" x="357" y="-394.8" font-family="Times New Roman,serif" font-size="14.00">gini = 0.136</text>
<text text-anchor="middle" x="357" y="-379.8" font-family="Times New Roman,serif" font-size="14.00">samples = 41</text>
<text text-anchor="middle" x="357" y="-364.8" font-family="Times New Roman,serif" font-size="14.00">value = [0, 3, 38]</text>
<text text-anchor="middle" x="357" y="-349.8" font-family="Times New Roman,serif" font-size="14.00">class = virginica</text>
</g>
<!-- 2&#45;&gt;6 -->
<g id="edge6" class="edge">
<title>2&#45;&gt;6</title>
<path fill="none" stroke="black" d="M299.53,-460.91C306.29,-451.92 313.52,-442.32 320.48,-433.05"/>
<polygon fill="black" stroke="black" points="323.31,-435.12 326.52,-425.02 317.71,-430.91 323.31,-435.12"/>
</g>
<!-- 4 -->
<g id="node5" class="node">
<title>4</title>
<polygon fill="#39e581" stroke="black" points="116,-298.5 0,-298.5 0,-230.5 116,-230.5 116,-298.5"/>
<text text-anchor="middle" x="58" y="-283.3" font-family="Times New Roman,serif" font-size="14.00">gini = 0.0</text>
<text text-anchor="middle" x="58" y="-268.3" font-family="Times New Roman,serif" font-size="14.00">samples = 37</text>
<text text-anchor="middle" x="58" y="-253.3" font-family="Times New Roman,serif" font-size="14.00">value = [0, 37, 0]</text>
<text text-anchor="middle" x="58" y="-238.3" font-family="Times New Roman,serif" font-size="14.00">class = versicolor</text>
</g>
<!-- 3&#45;&gt;4 -->
<g id="edge4" class="edge">
<title>3&#45;&gt;4</title>
<path fill="none" stroke="black" d="M138.98,-341.91C126.58,-330.21 113.07,-317.46 100.69,-305.78"/>
<polygon fill="black" stroke="black" points="102.83,-302.98 93.15,-298.67 98.02,-308.08 102.83,-302.98"/>
</g>
<!-- 5 -->
<g id="node6" class="node">
<title>5</title>
<polygon fill="#8139e5" stroke="black" points="241.5,-298.5 134.5,-298.5 134.5,-230.5 241.5,-230.5 241.5,-298.5"/>
<text text-anchor="middle" x="188" y="-283.3" font-family="Times New Roman,serif" font-size="14.00">gini = 0.0</text>
<text text-anchor="middle" x="188" y="-268.3" font-family="Times New Roman,serif" font-size="14.00">samples = 1</text>
<text text-anchor="middle" x="188" y="-253.3" font-family="Times New Roman,serif" font-size="14.00">value = [0, 0, 1]</text>
<text text-anchor="middle" x="188" y="-238.3" font-family="Times New Roman,serif" font-size="14.00">class = virginica</text>
</g>
<!-- 3&#45;&gt;5 -->
<g id="edge5" class="edge">
<title>3&#45;&gt;5</title>
<path fill="none" stroke="black" d="M184.08,-341.91C184.63,-331.2 185.22,-319.62 185.78,-308.78"/>
<polygon fill="black" stroke="black" points="189.28,-308.83 186.3,-298.67 182.29,-308.47 189.28,-308.83"/>
</g>
<!-- 7 -->
<g id="node8" class="node">
<title>7</title>
<polygon fill="#ffffff" stroke="black" points="431,-306 271,-306 271,-223 431,-223 431,-306"/>
<text text-anchor="middle" x="351" y="-290.8" font-family="Times New Roman,serif" font-size="14.00">sepal length (cm) &lt;= 5.45</text>
<text text-anchor="middle" x="351" y="-275.8" font-family="Times New Roman,serif" font-size="14.00">gini = 0.5</text>
<text text-anchor="middle" x="351" y="-260.8" font-family="Times New Roman,serif" font-size="14.00">samples = 4</text>
<text text-anchor="middle" x="351" y="-245.8" font-family="Times New Roman,serif" font-size="14.00">value = [0, 2, 2]</text>
<text text-anchor="middle" x="351" y="-230.8" font-family="Times New Roman,serif" font-size="14.00">class = versicolor</text>
</g>
<!-- 6&#45;&gt;7 -->
<g id="edge7" class="edge">
<title>6&#45;&gt;7</title>
<path fill="none" stroke="black" d="M354.92,-341.91C354.49,-333.56 354.03,-324.67 353.59,-316.02"/>
<polygon fill="black" stroke="black" points="357.09,-315.83 353.08,-306.02 350.09,-316.19 357.09,-315.83"/>
</g>
<!-- 12 -->
<g id="node13" class="node">
<title>12</title>
<polygon fill="#843ee6" stroke="black" points="607,-306 449,-306 449,-223 607,-223 607,-306"/>
<text text-anchor="middle" x="528" y="-290.8" font-family="Times New Roman,serif" font-size="14.00">petal length (cm) &lt;= 4.85</text>
<text text-anchor="middle" x="528" y="-275.8" font-family="Times New Roman,serif" font-size="14.00">gini = 0.053</text>
<text text-anchor="middle" x="528" y="-260.8" font-family="Times New Roman,serif" font-size="14.00">samples = 37</text>
<text text-anchor="middle" x="528" y="-245.8" font-family="Times New Roman,serif" font-size="14.00">value = [0, 1, 36]</text>
<text text-anchor="middle" x="528" y="-230.8" font-family="Times New Roman,serif" font-size="14.00">class = virginica</text>
</g>
<!-- 6&#45;&gt;12 -->
<g id="edge12" class="edge">
<title>6&#45;&gt;12</title>
<path fill="none" stroke="black" d="M416.33,-341.91C430.52,-332.2 445.78,-321.76 460.31,-311.81"/>
<polygon fill="black" stroke="black" points="462.5,-314.56 468.78,-306.02 458.55,-308.78 462.5,-314.56"/>
</g>
<!-- 8 -->
<g id="node9" class="node">
<title>8</title>
<polygon fill="#8139e5" stroke="black" points="253.5,-179.5 146.5,-179.5 146.5,-111.5 253.5,-111.5 253.5,-179.5"/>
<text text-anchor="middle" x="200" y="-164.3" font-family="Times New Roman,serif" font-size="14.00">gini = 0.0</text>
<text text-anchor="middle" x="200" y="-149.3" font-family="Times New Roman,serif" font-size="14.00">samples = 1</text>
<text text-anchor="middle" x="200" y="-134.3" font-family="Times New Roman,serif" font-size="14.00">value = [0, 0, 1]</text>
<text text-anchor="middle" x="200" y="-119.3" font-family="Times New Roman,serif" font-size="14.00">class = virginica</text>
</g>
<!-- 7&#45;&gt;8 -->
<g id="edge8" class="edge">
<title>7&#45;&gt;8</title>
<path fill="none" stroke="black" d="M298.61,-222.91C283.23,-210.99 266.43,-197.98 251.13,-186.12"/>
<polygon fill="black" stroke="black" points="252.85,-183.03 242.81,-179.67 248.57,-188.56 252.85,-183.03"/>
</g>
<!-- 9 -->
<g id="node10" class="node">
<title>9</title>
<polygon fill="#9cf2c0" stroke="black" points="430,-187 272,-187 272,-104 430,-104 430,-187"/>
<text text-anchor="middle" x="351" y="-171.8" font-family="Times New Roman,serif" font-size="14.00">petal length (cm) &lt;= 5.45</text>
<text text-anchor="middle" x="351" y="-156.8" font-family="Times New Roman,serif" font-size="14.00">gini = 0.444</text>
<text text-anchor="middle" x="351" y="-141.8" font-family="Times New Roman,serif" font-size="14.00">samples = 3</text>
<text text-anchor="middle" x="351" y="-126.8" font-family="Times New Roman,serif" font-size="14.00">value = [0, 2, 1]</text>
<text text-anchor="middle" x="351" y="-111.8" font-family="Times New Roman,serif" font-size="14.00">class = versicolor</text>
</g>
<!-- 7&#45;&gt;9 -->
<g id="edge9" class="edge">
<title>7&#45;&gt;9</title>
<path fill="none" stroke="black" d="M351,-222.91C351,-214.65 351,-205.86 351,-197.3"/>
<polygon fill="black" stroke="black" points="354.5,-197.02 351,-187.02 347.5,-197.02 354.5,-197.02"/>
</g>
<!-- 10 -->
<g id="node11" class="node">
<title>10</title>
<polygon fill="#39e581" stroke="black" points="291,-68 175,-68 175,0 291,0 291,-68"/>
<text text-anchor="middle" x="233" y="-52.8" font-family="Times New Roman,serif" font-size="14.00">gini = 0.0</text>
<text text-anchor="middle" x="233" y="-37.8" font-family="Times New Roman,serif" font-size="14.00">samples = 2</text>
<text text-anchor="middle" x="233" y="-22.8" font-family="Times New Roman,serif" font-size="14.00">value = [0, 2, 0]</text>
<text text-anchor="middle" x="233" y="-7.8" font-family="Times New Roman,serif" font-size="14.00">class = versicolor</text>
</g>
<!-- 9&#45;&gt;10 -->
<g id="edge10" class="edge">
<title>9&#45;&gt;10</title>
<path fill="none" stroke="black" d="M307.06,-103.73C297.04,-94.42 286.39,-84.54 276.39,-75.26"/>
<polygon fill="black" stroke="black" points="278.6,-72.54 268.88,-68.3 273.83,-77.67 278.6,-72.54"/>
</g>
<!-- 11 -->
<g id="node12" class="node">
<title>11</title>
<polygon fill="#8139e5" stroke="black" points="416.5,-68 309.5,-68 309.5,0 416.5,0 416.5,-68"/>
<text text-anchor="middle" x="363" y="-52.8" font-family="Times New Roman,serif" font-size="14.00">gini = 0.0</text>
<text text-anchor="middle" x="363" y="-37.8" font-family="Times New Roman,serif" font-size="14.00">samples = 1</text>
<text text-anchor="middle" x="363" y="-22.8" font-family="Times New Roman,serif" font-size="14.00">value = [0, 0, 1]</text>
<text text-anchor="middle" x="363" y="-7.8" font-family="Times New Roman,serif" font-size="14.00">class = virginica</text>
</g>
<!-- 9&#45;&gt;11 -->
<g id="edge11" class="edge">
<title>9&#45;&gt;11</title>
<path fill="none" stroke="black" d="M355.47,-103.73C356.38,-95.43 357.34,-86.67 358.26,-78.28"/>
<polygon fill="black" stroke="black" points="361.74,-78.62 359.35,-68.3 354.78,-77.86 361.74,-78.62"/>
</g>
<!-- 13 -->
<g id="node14" class="node">
<title>13</title>
<polygon fill="#c09cf2" stroke="black" points="608,-187 448,-187 448,-104 608,-104 608,-187"/>
<text text-anchor="middle" x="528" y="-171.8" font-family="Times New Roman,serif" font-size="14.00">sepal length (cm) &lt;= 5.95</text>
<text text-anchor="middle" x="528" y="-156.8" font-family="Times New Roman,serif" font-size="14.00">gini = 0.444</text>
<text text-anchor="middle" x="528" y="-141.8" font-family="Times New Roman,serif" font-size="14.00">samples = 3</text>
<text text-anchor="middle" x="528" y="-126.8" font-family="Times New Roman,serif" font-size="14.00">value = [0, 1, 2]</text>
<text text-anchor="middle" x="528" y="-111.8" font-family="Times New Roman,serif" font-size="14.00">class = virginica</text>
</g>
<!-- 12&#45;&gt;13 -->
<g id="edge13" class="edge">
<title>12&#45;&gt;13</title>
<path fill="none" stroke="black" d="M528,-222.91C528,-214.65 528,-205.86 528,-197.3"/>
<polygon fill="black" stroke="black" points="531.5,-197.02 528,-187.02 524.5,-197.02 531.5,-197.02"/>
</g>
<!-- 16 -->
<g id="node17" class="node">
<title>16</title>
<polygon fill="#8139e5" stroke="black" points="738,-179.5 626,-179.5 626,-111.5 738,-111.5 738,-179.5"/>
<text text-anchor="middle" x="682" y="-164.3" font-family="Times New Roman,serif" font-size="14.00">gini = 0.0</text>
<text text-anchor="middle" x="682" y="-149.3" font-family="Times New Roman,serif" font-size="14.00">samples = 34</text>
<text text-anchor="middle" x="682" y="-134.3" font-family="Times New Roman,serif" font-size="14.00">value = [0, 0, 34]</text>
<text text-anchor="middle" x="682" y="-119.3" font-family="Times New Roman,serif" font-size="14.00">class = virginica</text>
</g>
<!-- 12&#45;&gt;16 -->
<g id="edge16" class="edge">
<title>12&#45;&gt;16</title>
<path fill="none" stroke="black" d="M581.43,-222.91C597.26,-210.88 614.56,-197.73 630.28,-185.79"/>
<polygon fill="black" stroke="black" points="632.5,-188.5 638.34,-179.67 628.26,-182.93 632.5,-188.5"/>
</g>
<!-- 14 -->
<g id="node15" class="node">
<title>14</title>
<polygon fill="#39e581" stroke="black" points="574,-68 458,-68 458,0 574,0 574,-68"/>
<text text-anchor="middle" x="516" y="-52.8" font-family="Times New Roman,serif" font-size="14.00">gini = 0.0</text>
<text text-anchor="middle" x="516" y="-37.8" font-family="Times New Roman,serif" font-size="14.00">samples = 1</text>
<text text-anchor="middle" x="516" y="-22.8" font-family="Times New Roman,serif" font-size="14.00">value = [0, 1, 0]</text>
<text text-anchor="middle" x="516" y="-7.8" font-family="Times New Roman,serif" font-size="14.00">class = versicolor</text>
</g>
<!-- 13&#45;&gt;14 -->
<g id="edge14" class="edge">
<title>13&#45;&gt;14</title>
<path fill="none" stroke="black" d="M523.53,-103.73C522.62,-95.43 521.66,-86.67 520.74,-78.28"/>
<polygon fill="black" stroke="black" points="524.22,-77.86 519.65,-68.3 517.26,-78.62 524.22,-77.86"/>
</g>
<!-- 15 -->
<g id="node16" class="node">
<title>15</title>
<polygon fill="#8139e5" stroke="black" points="699.5,-68 592.5,-68 592.5,0 699.5,0 699.5,-68"/>
<text text-anchor="middle" x="646" y="-52.8" font-family="Times New Roman,serif" font-size="14.00">gini = 0.0</text>
<text text-anchor="middle" x="646" y="-37.8" font-family="Times New Roman,serif" font-size="14.00">samples = 2</text>
<text text-anchor="middle" x="646" y="-22.8" font-family="Times New Roman,serif" font-size="14.00">value = [0, 0, 2]</text>
<text text-anchor="middle" x="646" y="-7.8" font-family="Times New Roman,serif" font-size="14.00">class = virginica</text>
</g>
<!-- 13&#45;&gt;15 -->
<g id="edge15" class="edge">
<title>13&#45;&gt;15</title>
<path fill="none" stroke="black" d="M571.94,-103.73C581.96,-94.42 592.61,-84.54 602.61,-75.26"/>
<polygon fill="black" stroke="black" points="605.17,-77.67 610.12,-68.3 600.4,-72.54 605.17,-77.67"/>
</g>
</g>
</svg>
